<svg width="162" height="14" viewBox="0 0 162 14" fill="none" xmlns="http://www.w3.org/2000/svg">
<path d="M31.3278 0.32067V2.33883H24.1193V5.7044H30.5932V7.61371H24.1193V11.0146H31.556V13.0357H21.8373V0.317728H31.3247L31.3278 0.32067ZM41.6061 1.99463C41.034 1.97403 40.4682 2.10642 39.9712 2.37708C39.5492 2.6242 39.3054 3.06549 39.3335 3.53031C39.3116 4.00102 39.5523 4.45113 39.9712 4.71297C40.3963 4.98657 41.3029 5.28076 42.6877 5.59554C44.0725 5.91033 45.1134 6.35162 45.8105 6.92235C46.5139 7.49309 46.864 8.33154 46.864 9.44064C46.8953 10.488 46.4014 11.4853 45.5323 12.1384C44.6414 12.8297 43.4754 13.1739 42.0343 13.1739C39.9212 13.1739 38.0456 12.4885 36.4107 11.1175L37.8424 9.49948C39.2085 10.6145 40.6245 11.1734 42.0937 11.1734C42.8252 11.1734 43.4098 11.0234 43.8412 10.7263C44.2569 10.4615 44.5008 10.0173 44.4883 9.54361C44.507 9.09055 44.2757 8.66103 43.8787 8.40214C43.4723 8.13148 42.7752 7.88142 41.7843 7.65783C41.0215 7.49603 40.2682 7.29009 39.5336 7.03709C39.0334 6.86057 38.5645 6.61345 38.1456 6.30161C37.3454 5.73087 36.9484 4.85712 36.9484 3.68329C36.9484 2.50946 37.4048 1.60041 38.3176 0.964952C39.2272 0.329496 40.3526 0.0117677 41.6905 0.00882581C42.5658 0.00882581 43.4317 0.147096 44.2601 0.408928C45.0603 0.653108 45.8074 1.03556 46.4576 1.53863L45.2447 3.15669C44.7696 2.77718 44.2163 2.49181 43.6224 2.31824C42.9721 2.10642 42.2907 1.99463 41.603 1.99168H41.6092L41.6061 1.99463ZM62.3564 3.31849C60.5308 1.55628 57.533 1.51803 55.6605 3.23612C55.6324 3.2626 55.6011 3.28907 55.573 3.31849C54.6633 4.18636 54.1632 5.36019 54.1882 6.57815C54.1632 7.79611 54.6633 8.97288 55.573 9.8378C57.3986 11.6 60.3964 11.6383 62.2689 9.92018C62.297 9.8937 62.3283 9.86722 62.3564 9.8378C63.2661 8.96993 63.7662 7.79611 63.7412 6.57815C63.7631 5.36019 63.2661 4.18342 62.3564 3.31849ZM64.0288 11.2764C62.6627 12.5326 60.9747 13.1592 58.9647 13.1592C56.9547 13.1592 55.2667 12.5326 53.9006 11.2764C52.5314 10.0202 51.8437 8.46098 51.8437 6.59286C51.8437 4.72473 52.5252 3.16257 53.8912 1.90048C55.2573 0.644282 56.9453 0.0176516 58.9553 0.0176516C60.9653 0.0176516 62.6534 0.64134 64.0194 1.89166C65.3855 3.14786 66.0701 4.71297 66.0701 6.59286C66.0701 8.47275 65.3855 10.032 64.0194 11.2764H64.0288ZM82.7628 4.44819C82.7628 6.54579 81.7907 7.86671 79.8432 8.41391L83.3787 13.0327H80.4777L77.2517 8.75811H74.257V13.0327H71.9751V0.317728H76.9985C79.0586 0.317728 80.534 0.644282 81.4249 1.29445C82.3127 1.94756 82.7597 2.99488 82.7597 4.44231V4.44819H82.7628ZM77.1017 6.81056C78.3896 6.81056 79.2649 6.62228 79.7306 6.24571C80.1964 5.86914 80.4246 5.26899 80.4246 4.43643C80.4246 3.60386 80.187 3.03607 79.7088 2.72717C79.2305 2.41826 78.3833 2.26528 77.158 2.26528H74.2633V6.81056H77.1048H77.1017ZM94.1821 2.28293V13.0327H91.9032V2.28588H87.8082V0.32067H98.2834V2.28588H94.1852L94.1821 2.28293ZM108.421 0.317728C110.468 0.317728 111.966 0.688411 112.907 1.42683C113.848 2.16526 114.317 3.30673 114.317 4.85124C114.317 6.38986 113.838 7.51956 112.879 8.23445C111.919 8.94934 110.45 9.30531 108.471 9.30237H106.067V13.0327H103.794V0.317728H108.424H108.421ZM108.712 7.35776C109.975 7.35776 110.834 7.13123 111.294 6.67523C111.753 6.21923 111.981 5.55436 111.988 4.67472C111.988 3.79803 111.7 3.17434 111.122 2.80954C110.544 2.44474 109.637 2.26234 108.396 2.26528H106.067V7.35776H108.715H108.712ZM121.947 10.1408L120.594 13.0327H118.158L124.11 0.317728H126.545L132.497 13.0327H130.062L128.709 10.1408H121.944H121.947ZM127.783 8.15796L125.329 2.91839L122.876 8.15796H127.783ZM141.491 1.99168C140.919 1.97109 140.353 2.10348 139.856 2.37413C139.434 2.62126 139.19 3.06255 139.218 3.52737C139.196 3.99808 139.437 4.44819 139.856 4.71002C140.281 4.98362 141.188 5.27782 142.572 5.5926C143.957 5.90739 145.001 6.34868 145.708 6.91941C146.408 7.49014 146.761 8.32859 146.761 9.4377C146.789 10.485 146.292 11.4853 145.423 12.1354C144.532 12.8268 143.366 13.171 141.925 13.171C139.812 13.171 137.937 12.4855 136.302 11.1146L137.73 9.49654C139.096 10.6115 140.512 11.1705 141.982 11.1705C142.716 11.1705 143.298 11.0205 143.729 10.7233C144.145 10.4585 144.389 10.0143 144.376 9.54067C144.395 9.08761 144.163 8.65809 143.766 8.3992C143.36 8.12854 142.663 7.87848 141.672 7.65489C140.906 7.49309 140.15 7.28715 139.412 7.03415C138.918 6.85763 138.455 6.61051 138.04 6.29866C137.239 5.73087 136.839 4.85712 136.842 3.68035C136.842 2.50064 137.299 1.59452 138.205 0.96201C139.115 0.326554 140.24 0.00882577 141.578 0.00588385C142.454 0.00588385 143.323 0.141212 144.151 0.405986C144.954 0.647224 145.698 1.03262 146.352 1.53569L145.139 3.15375C144.664 2.77424 144.11 2.48887 143.516 2.3153C142.866 2.10348 142.185 1.99168 141.497 1.98874H141.491V1.99168ZM156.696 1.98874C156.124 1.96815 155.558 2.10054 155.064 2.37119C154.642 2.61831 154.398 3.0596 154.426 3.52443C154.404 3.99808 154.645 4.44525 155.064 4.70708C155.489 4.98068 156.392 5.27487 157.777 5.58966C159.162 5.90445 160.206 6.34574 160.909 6.91647C161.61 7.4872 161.963 8.32565 161.963 9.43476C161.994 10.4821 161.5 11.4823 160.628 12.1354C159.74 12.8268 158.574 13.171 157.13 13.171C155.017 13.171 153.141 12.4855 151.506 11.1146L152.938 9.49654C154.304 10.6115 155.72 11.1705 157.189 11.1705C157.924 11.1705 158.506 11.0205 158.94 10.7233C159.353 10.4585 159.597 10.0143 159.587 9.54067C159.603 9.08761 159.375 8.65809 158.981 8.3992C158.574 8.12854 157.877 7.87848 156.883 7.65489C156.117 7.49309 155.361 7.28715 154.623 7.03415C154.129 6.85763 153.667 6.60757 153.251 6.29866C152.454 5.72793 152.053 4.85418 152.053 3.67447C152.053 2.49475 152.507 1.58864 153.416 0.956126C154.323 0.32067 155.448 0.00294193 156.789 0C157.665 0 158.531 0.138271 159.359 0.400102C160.162 0.64134 160.909 1.02673 161.56 1.5298L160.347 3.14786C159.872 2.76835 159.318 2.48299 158.724 2.30941C158.074 2.09465 157.39 1.98286 156.699 1.97992L156.696 1.98874Z" fill="#57BFCE"/>
<path fill-rule="evenodd" clip-rule="evenodd" d="M0 9.37284C3.13224 6.64862 6.7959 6.06906 9.37796 6.86043C12.2601 7.74301 13.5637 11.8529 16.0176 11.7558C17.5399 11.694 16.8147 9.04923 15.705 9.9877C15.705 9.9877 16.3708 7.92247 17.9494 9.05511C19.0998 9.88179 19.031 11.8499 18.3152 12.8119C16.871 14.7536 13.5637 14.0829 12.2414 12.4648C11.0848 11.0468 10.3126 9.84943 9.04661 8.85506C8.28387 8.25491 7.18977 7.98131 5.98314 7.94306V13.0444H3.70117V8.11958C2.33511 8.35787 1.00657 8.81387 0 9.37284ZM3.70117 6.16908C4.01377 6.06611 4.33262 5.97491 4.6546 5.89842C5.08911 5.79546 5.533 5.71897 5.98314 5.66895V2.26809H8.88406C10.1094 2.26809 10.9597 2.42401 11.438 2.73291C11.9163 3.04181 12.1538 3.61255 12.1538 4.44511C12.1538 5.27768 11.9225 5.88077 11.4567 6.25734C11.3161 6.37207 11.1379 6.46916 10.9191 6.54859C11.563 6.94575 12.1195 7.45764 12.6352 7.99602C13.8731 7.31055 14.4921 6.13084 14.4921 4.45688C14.4921 3.01239 14.0482 1.96213 13.1573 1.30902C12.2664 0.65297 10.7909 0.326416 8.72776 0.326416H3.70117V6.17496V6.16908Z" fill="#57BFCE"/>
</svg>
